<?xml version="1.0" encoding="UTF-8" standalone="no"?>
<!-- Created with Inkscape (http://www.inkscape.org/) -->

<svg
   width="159.52039mm"
   height="134.60701mm"
   viewBox="0 0 159.52039 134.60701"
   version="1.1"
   id="svg5"
   inkscape:version="1.2 (1:1.2+202206011327+fc4e4096c5)"
   sodipodi:docname="logo__z.svg"
   xmlns:inkscape="http://www.inkscape.org/namespaces/inkscape"
   xmlns:sodipodi="http://sodipodi.sourceforge.net/DTD/sodipodi-0.dtd"
   xmlns="http://www.w3.org/2000/svg"
   xmlns:svg="http://www.w3.org/2000/svg">
  <sodipodi:namedview
     id="namedview7"
     pagecolor="#ffffff"
     bordercolor="#000000"
     borderopacity="0.25"
     inkscape:showpageshadow="2"
     inkscape:pageopacity="0.0"
     inkscape:pagecheckerboard="0"
     inkscape:deskcolor="#d1d1d1"
     inkscape:document-units="mm"
     showgrid="false"
     inkscape:zoom="0.70021044"
     inkscape:cx="139.24385"
     inkscape:cy="480.56981"
     inkscape:window-width="1920"
     inkscape:window-height="952"
     inkscape:window-x="0"
     inkscape:window-y="27"
     inkscape:window-maximized="1"
     inkscape:current-layer="layer1" />
  <defs
     id="defs2">
    <inkscape:path-effect
       effect="powerstroke"
       id="path-effect753"
       is_visible="true"
       lpeversion="1"
       offset_points="0.44070734,4.386489"
       not_jump="true"
       sort_points="true"
       interpolator_type="CentripetalCatmullRom"
       interpolator_beta="0.75"
       start_linecap_type="round"
       linejoin_type="spiro"
       miter_limit="4"
       scale_width="1"
       end_linecap_type="round" />
    <inkscape:path-effect
       effect="simplify"
       id="path-effect751"
       is_visible="true"
       lpeversion="1"
       steps="1"
       threshold="0.0047745358"
       smooth_angles="0"
       helper_size="0"
       simplify_individual_paths="false"
       simplify_just_coalesce="false"
       step="1" />
  </defs>
  <g
     inkscape:label="Layer 1"
     inkscape:groupmode="layer"
     id="layer1"
     transform="translate(-2.5378861,-3.5754244)">
    <path
       d="m 19.871498,50.327142 c 1.183609,-9.73e-4 3.514131,-0.145775 6.102191,-1.515087 1.140616,-0.603486 2.359284,-1.458847 3.553393,-2.668399 0.291482,-0.295251 0.592396,-0.622671 0.89782,-0.985434 0.992649,-1.17901 1.999478,-2.69331 2.864882,-4.587077 0.657385,-1.438559 1.223873,-3.079966 1.602172,-4.846541 1.341224,-6.055267 2.29783,-14.933093 -0.164223,-24.200498 -0.04671,-0.286541 -0.109697,-0.551745 -0.178786,-0.791669 C 34.440775,10.356793 34.309223,10.014027 34.17598,9.7119323 33.918727,9.1286736 33.613846,8.6046773 33.342109,8.1771248 33.073375,7.754298 32.797674,7.3649566 32.571177,7.0510334 32.31948,6.7021834 32.182788,6.5192784 32.054892,6.3344597 c -0.04858,-0.070204 -0.0739,-0.1118017 -0.05913,-0.087276 0.01462,0.024274 0.07168,0.099911 0.185191,0.3850516 0.05086,0.1277698 0.131984,0.352815 0.192297,0.6505967 0.05768,0.2848177 0.124835,0.7732938 0.04299,1.3779903 -0.04222,0.3119064 -0.126542,0.6691457 -0.279397,1.0421848 -0.154921,0.3780698 -0.371369,0.7514988 -0.656212,1.0975128 -0.283984,0.344969 -0.606151,0.626502 -0.941432,0.848415 -0.330713,0.218889 -0.655344,0.367537 -0.944435,0.468335 -0.557253,0.194291 -1.031878,0.228387 -1.312916,0.230967 -0.291194,0.0027 -0.516358,-0.02786 -0.643425,-0.04934 -0.278948,-0.04716 -0.344766,-0.08155 -0.335769,-0.07842 0.0089,0.0031 0.102183,0.03775 0.249265,0.101777 0.148818,0.06478 0.34398,0.154485 0.594939,0.275953 0.216888,0.104976 0.442089,0.191915 0.673253,0.259909 3.599369,1.058703 7.126949,2.591753 10.802863,4.441504 3.547585,1.785174 7.169839,3.84104 10.975977,5.878364 3.674998,1.967126 7.622785,3.964945 11.793382,5.545071 4.079835,1.545739 8.472022,2.734419 13.253221,3.136856 4.805157,0.577374 9.657141,-0.08923 14.192289,-1.780801 4.279222,-1.596116 8.289222,-4.111317 11.668742,-7.350867 0.50331,-0.361305 0.96406,-0.747984 1.35723,-1.129798 0.23991,-0.232979 0.49241,-0.500713 0.72678,-0.793928 0.11745,-0.146943 0.25148,-0.326598 0.38402,-0.53358 0.12313,-0.192284 0.30001,-0.493046 0.45245,-0.87666 0.0782,-0.196687 0.16939,-0.46361 0.23598,-0.786304 0.0651,-0.315606 0.12425,-0.768572 0.0775,-1.308315 -0.0479,-0.553186 -0.22158,-1.259317 -0.63348,-1.93595 -0.43273,-0.710859 -1.03017,-1.245554 -1.6809,-1.598245 -0.6187,-0.335332 -1.2047,-0.464702 -1.63674,-0.513488 -0.43192,-0.04877 -0.799452,-0.02742 -1.062845,0.0038 -0.508004,0.06028 -0.914368,0.19288 -1.15271,0.280599 -0.262143,0.09648 -0.493515,0.203711 -0.681194,0.298394 -0.192531,0.09713 -0.378185,0.200923 -0.553453,0.304955 -0.346577,0.205713 -0.714775,0.449455 -1.101165,0.722966 -0.0546,0.03865 -0.108311,0.07854 -0.161087,0.11965 -10.84175,8.444437 -20.989945,18.551309 -28.867736,30.601596 -5.869087,8.632168 -10.716437,17.791362 -15.465401,26.807515 -4.727701,8.975786 -9.334264,17.762276 -14.811797,25.982922 -2.685271,3.547398 -5.025443,6.907278 -7.826138,9.776058 -1.372034,1.40539 -2.767859,2.59437 -4.234014,3.52479 -1.411245,0.89556 -2.892252,1.55475 -4.49659,1.93621 -2.139867,0.30545 -4.250218,0.48202 -6.231766,0.38308 -2.049638,-0.10235 -3.798238,-0.49256 -5.231451,-1.20897 l 2.401933,3.47231 c -0.0082,-0.0794 -0.0081,-0.22826 0.126215,-0.51087 0.14922,-0.31393 0.441097,-0.73555 0.940617,-1.2294 0.496168,-0.49054 1.118133,-0.97407 1.812814,-1.41931 0.696646,-0.44648 1.413607,-0.82068 2.058911,-1.10407 0.0109,-0.005 0.02178,-0.01 0.03264,-0.0145 2.86441,-1.28588 5.839825,-2.08773 8.886917,-2.50538 3.085393,-0.4229 6.254457,-0.45305 9.458985,-0.18405 6.543964,0.54932 13.164122,2.33986 19.37607,4.49439 0.01337,0.005 0.02675,0.009 0.04016,0.0137 7.271256,2.44341 14.383188,5.6328 21.447766,8.73481 7.402016,3.25018 14.707791,6.38426 22.425147,8.7169 0.05604,0.0169 0.112422,0.0328 0.169099,0.0474 7.141085,1.84997 14.113195,3.92733 21.454965,5.33542 7.71841,1.48032 15.39341,2.11478 23.14779,0.93719 0.0614,-0.009 0.12259,-0.0199 0.18354,-0.0319 3.43146,-0.67126 7.05543,-1.82772 10.22823,-3.69168 1.7059,-1.00219 3.2905,-2.21393 4.64927,-3.67164 1.44699,-1.55234 2.59899,-3.34275 3.3701,-5.36851 0.0473,-0.12414 0.0889,-0.25036 0.12465,-0.37827 1.13286,-4.04774 0.96466,-8.09218 0.19029,-11.47099 -0.98845,-4.31285 -2.98144,-7.76844 -5.17443,-10.24355 a 4.386489,4.386489 90 0 0 -6.56636,5.81792 c 1.27029,1.4337 2.54616,3.57833 3.18952,6.38546 0.49495,2.15962 0.57787,4.61282 -0.033,6.94595 -0.34091,0.82892 -0.84003,1.60266 -1.51816,2.33016 -0.69315,0.74363 -1.58085,1.44603 -2.67573,2.08925 -2.05435,1.2069 -4.63261,2.08319 -7.37787,2.62823 -6.40353,0.95821 -12.98055,0.46906 -20.08537,-0.89359 -6.94794,-1.33255 -13.3234,-3.24539 -20.82116,-5.18976 -7.124839,-2.16014 -13.96889,-5.08427 -21.353403,-8.32677 -6.928492,-3.04225 -14.440193,-6.41563 -22.160266,-9.01133 -6.546723,-2.26957 -13.935096,-4.30632 -21.496998,-4.94109 -3.732824,-0.31335 -7.557238,-0.28997 -11.384164,0.23457 -3.784595,0.51873 -7.574009,1.52807 -11.272607,3.18646 -1.031223,0.45388 -2.148374,1.03801 -3.2484128,1.74304 -1.0920707,0.69992 -2.2236472,1.55514 -3.2468472,2.56672 -1.0082695,0.99682 -1.9962289,2.22946 -2.6961414,3.70196 -0.7092289,1.49209 -1.1287038,3.25076 -0.9291997,5.17964 0.03852,0.37242 0.08026,0.74617 0.1765026,1.108 0.096243,0.36183 0.24749,0.71036 0.4604906,1.01828 0.2130005,0.30792 0.4857768,0.57238 0.7904057,0.79006 0.3046289,0.21768 0.6396339,0.38857 0.974536,0.55597 2.8321569,1.41571 5.8398342,1.98019 8.7164762,2.12383 2.833959,0.14151 5.631796,-0.12768 8.111202,-0.48937 0.111236,-0.0162 0.22181,-0.0367 0.331471,-0.0615 2.766651,-0.62368 5.225806,-1.7283 7.423853,-3.12316 2.184355,-1.38618 4.101529,-3.05278 5.810839,-4.80365 3.331852,-3.41286 6.205063,-7.52516 8.620248,-10.71083 0.05301,-0.0699 0.103919,-0.14143 0.152643,-0.21441 5.808328,-8.699681 10.646397,-17.94443 15.349664,-26.873826 4.783909,-9.082499 9.420801,-17.823919 14.979929,-25.995157 0.01546,-0.02272 0.0307,-0.04559 0.04573,-0.0686 7.208762,-11.036398 16.596985,-20.448064 26.852527,-28.447266 0.21361,-0.14913 0.35438,-0.238348 0.43298,-0.284999 0.0427,-0.02532 0.0501,-0.028 0.0271,-0.01643 -0.0177,0.0089 -0.10253,0.05135 -0.24027,0.102041 -0.11362,0.04182 -0.41744,0.147601 -0.8436,0.198173 -0.22243,0.02639 -0.55418,0.04717 -0.955287,0.0019 -0.401268,-0.04531 -0.961497,-0.167148 -1.559272,-0.491138 -0.629773,-0.341333 -1.211118,-0.860851 -1.632436,-1.552962 -0.400468,-0.65786 -0.567424,-1.341637 -0.613092,-1.86908 -0.0445,-0.514068 0.01232,-0.937963 0.0708,-1.221368 0.05995,-0.290506 0.140177,-0.522104 0.203155,-0.680585 0.122036,-0.307092 0.25173,-0.519812 0.312359,-0.614491 0.06987,-0.109103 0.125799,-0.181263 0.151185,-0.213022 0.04939,-0.06179 0.06059,-0.06722 0.01418,-0.02215 -0.09249,0.08982 -0.262635,0.233783 -0.471873,0.373081 -0.229069,0.152501 -0.443317,0.326254 -0.639833,0.518894 -2.567394,2.516768 -5.633983,4.456176 -8.86835,5.662569 -3.348579,1.248994 -6.814917,1.693338 -10.142145,1.282687 -0.05938,-0.0073 -0.118909,-0.01344 -0.178542,-0.01834 C 72.648734,22.8116 69.037299,21.859125 65.500575,20.519156 61.86993,19.143603 58.32079,17.360548 54.73913,15.443382 51.066575,13.477562 47.37671,11.380258 43.566476,9.4629158 39.741934,7.5383735 35.805727,5.799796 31.637767,4.543529 31.434122,4.447836 31.239322,4.3592644 31.053644,4.2784328 30.771441,4.1555815 30.480441,4.0375224 30.191008,3.9366052 29.918985,3.8417585 29.537276,3.7224467 29.100756,3.6486529 28.875232,3.610528 28.565076,3.5722916 28.201361,3.575628 c -0.353946,0.00325 -0.888897,0.046465 -1.494889,0.2577488 -0.313614,0.109348 -0.659816,0.2685176 -1.009321,0.4998442 -0.354118,0.2343801 -0.692329,0.5303065 -0.98969,0.8915256 -0.298251,0.3623015 -0.525428,0.7538853 -0.688503,1.1518509 -0.161071,0.3930919 -0.251022,0.772132 -0.29642,1.1075296 -0.08824,0.6519921 -0.01765,1.1947173 0.05232,1.5401976 0.07267,0.3587914 0.175083,0.6513415 0.25518,0.8525571 0.156368,0.3928112 0.338672,0.7108932 0.451143,0.8975772 0.125551,0.208395 0.254365,0.400099 0.359609,0.552185 0.192231,0.277788 0.46143,0.643448 0.615891,0.857529 0.195933,0.271562 0.352338,0.495791 0.481325,0.69874 0.126083,0.198379 0.201869,0.348496 0.211077,0.369372 0.0047,0.01065 -0.0079,-0.01358 -0.03054,-0.09221 -0.02137,-0.07421 -0.05774,-0.221775 -0.074,-0.429623 l 0.141715,0.813819 c 2.053979,7.517772 1.317381,14.969021 0.136755,20.29924 -0.0025,0.0111 -0.0049,0.02222 -0.0072,0.03334 -0.238234,1.116625 -0.597951,2.156591 -1.005283,3.047958 -0.525268,1.149447 -1.106583,2.000982 -1.596689,2.5831 -0.151723,0.180208 -0.296034,0.336742 -0.429855,0.472292 -0.539882,0.546858 -1.029378,0.874374 -1.413053,1.077372 -0.848524,0.448944 -1.589366,0.496258 -2.006593,0.4966 a 4.386489,4.386489 90 0 0 0.0072,8.772976 z"
       id="path-1"
       inkscape:path-effect="#path-effect751;#path-effect753"
       inkscape:original-d="M 19.867893,45.940654 C 32.758514,45.500068 32.585618,23.545838 31.20953,15.539124 30.796277,13.134625 30.211142,11.548292 29.109441,9.5175652 28.974178,9.2682391 27.49849,8.0891399 27.714474,7.8275421 c 0.2173,-0.2631924 0.652521,0.2851763 0.975653,0.4334901 1.04556,0.4798994 0.793533,0.1743095 2.100089,0.587469 16.999203,5.3754878 29.833156,18.7990108 48.786862,18.7990108 5.260134,0 10.010912,-1.898715 14.377585,-4.406013 0.05065,-0.02908 7.049377,-5.697293 6.738197,-5.738335 -1.140512,-0.150427 -5.992016,4.243898 -6.821409,4.971351 -3.511648,3.080041 -7.053783,6.149609 -10.24781,9.503269 -9.110626,9.565959 -15.796446,20.128121 -22.04163,31.355513 -6.074083,10.919791 -11.517739,22.204531 -18.01382,32.931398 -2.351946,3.883725 -5.900733,8.726145 -8.924199,12.246815 -6.373599,7.42171 -11.485599,10.76583 -21.808705,9.69323 -1.603941,-0.16665 -3.9812784,-0.31619 -5.4925627,-1.17493 -2.6017375,-1.47836 3.2646517,-6.84288 4.0386477,-7.47169 26.201783,-14.971807 60.685185,8.85781 86.189011,17.0665 16.951167,4.40612 44.355297,13.72893 57.482277,0.0599 4.78452,-5.07469 2.42818,-16.51603 -2.07206,-21.06191"
       style="fill:#00f312;fill-opacity:0.983662;fill-rule:nonzero;stroke:none;stroke-width:2.21855;stroke-miterlimit:2;stroke-opacity:0.557442;paint-order:markers fill stroke"
       sodipodi:nodetypes="cssssssssssssssscccc" />
  </g>
</svg>
